<svg aria-labelledby="Pay at Your Own Pace" role="img" class="tailored-loan__IconOwnPaceImg-sc-11a6x2u-6 gjwYhk" width="60" height="60" viewBox="0 0 60 60" xmlns="http://www.w3.org/2000/svg" xmlns:xlink="http://www.w3.org/1999/xlink"><title>ICN Pay at Your Own Pace</title><defs><rect id="a" y="5.6" width="59.2" height="54.4" rx="1"/><rect id="b" x="9.6" width="9.6" height="11.2" rx="1"/><rect id="c" x="40" width="9.6" height="11.2" rx="1"/></defs><g fill="none" fill-rule="evenodd"><g><use fill="#FFF" xmlns:xlink="http://www.w3.org/1999/xlink" xlink:href="#a"/><rect stroke="#00AFAE" stroke-width="1.5" x=".75" y="6.35" width="57.7" height="52.9" rx="1"/></g><path d="M53.282 29.6h-46.4M53.282 39.2h-46.4M53.282 48.8h-46.4M16 24v30.4M30.4 24v30.4M44.8 24v30.4" stroke="#00AFAE" stroke-width="1.5" stroke-linecap="round" stroke-linejoin="round"/><g><use fill="#FFF" xmlns:xlink="http://www.w3.org/1999/xlink" xlink:href="#b"/><rect stroke="#00AFAE" stroke-width="1.5" x="10.35" y=".75" width="8.1" height="9.7" rx="1"/></g><g><use fill="#FFF" xmlns:xlink="http://www.w3.org/1999/xlink" xlink:href="#c"/><rect stroke="#00AFAE" stroke-width="1.5" x="40.75" y=".75" width="8.1" height="9.7" rx="1"/></g><path d="M1.6 19.2h56.8" stroke="#00AFAE" stroke-width="1.5" stroke-linecap="square"/><path fill="#FFF" d="M16.8 30.3h27.3v17.8H16.8z"/><path d="M27.36 41.057c.021.699.243 1.251.664 1.658.421.407.952.662 1.592.767v-4.146a11.114 11.114 0 0 1-1.464-.445 3.77 3.77 0 0 1-1.024-.58 2.006 2.006 0 0 1-.6-.82c-.128-.324-.192-.715-.192-1.174 0-.469.085-.9.256-1.29.17-.391.403-.73.696-1.017.293-.287.64-.514 1.04-.68.4-.167.83-.266 1.288-.298V32h.88v1.048c.864.104 1.552.417 2.064.939.512.521.875 1.24 1.088 2.158h-1.36c-.213-1.032-.81-1.637-1.792-1.814v3.848l.96.25c.213.052.464.143.752.274.288.13.565.31.832.54.267.229.493.516.68.86.187.344.28.756.28 1.236 0 .51-.088.964-.264 1.36a3.092 3.092 0 0 1-.728 1.025c-.31.287-.677.514-1.104.68a4.952 4.952 0 0 1-1.408.313V46h-.88v-1.283c-1.067-.104-1.915-.466-2.544-1.087-.63-.62-.987-1.478-1.072-2.573h1.36zm3.136 2.425a3.34 3.34 0 0 0 .824-.157c.25-.083.47-.206.656-.367.187-.162.33-.365.432-.61.101-.246.152-.535.152-.869 0-.302-.053-.555-.16-.758a1.651 1.651 0 0 0-.432-.524 2.444 2.444 0 0 0-.656-.368c-.256-.099-.528-.19-.816-.274v3.927zm-.88-9.198a2.303 2.303 0 0 0-1.304.54c-.357.307-.536.758-.536 1.353 0 .27.045.503.136.696.09.193.219.354.384.485.165.13.36.242.584.336.224.094.47.177.736.25v-3.66z" fill="#00AFAE"/></g></svg>