<svg aria-labelledby="Save Money" role="img" class="tailored-loan__IconSaveMoneyImg-sc-11a6x2u-7 cObyig" viewBox="0 0 73 49" xmlns="http://www.w3.org/2000/svg"><g stroke="#00AFAE" fill="none" fill-rule="evenodd" stroke-linecap="round" stroke-linejoin="round"><path stroke-width="1.5" fill="#FFF" d="M72 39H9V1h63z"/><path stroke-width="1.5" fill="#FFF" d="M68 43H5V5h63z"/><path stroke-width="1.5" fill="#FFF" d="M64 48H1V10h63z"/><path d="M40 29a8 8 0 0 1-8 8 8 8 0 0 1-8-8 8 8 0 0 1 8-8 8 8 0 0 1 8 8z" stroke-width="1.5"/><path d="M53 37.5a1.5 1.5 0 1 1-3.001-.001A1.5 1.5 0 0 1 53 37.5zm-40-16a1.5 1.5 0 1 1-3.001-.001A1.5 1.5 0 0 1 13 21.5z"/><path d="M57 37.6c0 2.983-2.405 5.4-5.368 5.4H11.368C8.405 43 6 40.584 6 37.6V21.4c0-2.98 2.405-5.4 5.368-5.4h40.264C54.595 16 57 18.42 57 21.4v16.2z" stroke-width="1.5"/></g></svg>