<svg aria-labelledby="Get a Low Rate" role="img" class="tailored-loan__IconLowRateImg-sc-11a6x2u-5 gQBTJo" viewBox="0 0 62 62" xmlns="http://www.w3.org/2000/svg"><g stroke-width="1.5" stroke="#00AFAE" class="ilr" fill="none" fill-rule="evenodd" stroke-linejoin="round"><path d="M56.743 25.82c2.063-1.34 2.95-3.992 1.974-6.344a5.208 5.208 0 0 0-5.895-3.092 5.191 5.191 0 0 0-.608-6.619 5.225 5.225 0 0 0-6.631-.609 5.196 5.196 0 0 0-3.105-5.879 5.215 5.215 0 0 0-6.357 1.973A5.209 5.209 0 0 0 31 1a5.206 5.206 0 0 0-5.12 4.25 5.218 5.218 0 0 0-6.36-1.973 5.197 5.197 0 0 0-3.103 5.88 5.222 5.222 0 0 0-6.63.611 5.19 5.19 0 0 0-.609 6.616 5.207 5.207 0 0 0-5.893 3.092c-.978 2.355-.091 5.002 1.972 6.345A5.198 5.198 0 0 0 1 30.93c0 2.548 1.837 4.658 4.257 5.106-2.063 1.343-2.95 3.997-1.974 6.348.978 2.352 3.482 3.602 5.895 3.094a5.194 5.194 0 0 0 .608 6.616 5.221 5.221 0 0 0 6.631.606 5.2 5.2 0 0 0 3.105 5.882 5.212 5.212 0 0 0 6.357-1.973 5.209 5.209 0 0 0 10.242 0 5.218 5.218 0 0 0 6.36 1.973 5.198 5.198 0 0 0 3.102-5.882 5.221 5.221 0 0 0 6.63-.606 5.187 5.187 0 0 0 .609-6.616c2.41.508 4.917-.742 5.895-3.094.979-2.35.092-5.005-1.974-6.348A5.196 5.196 0 0 0 61 30.93c0-2.548-1.834-4.659-4.257-5.11z" fill="#FFF"/><path d="M21.057 40.987L40.93 20.785m-13.249 3.367c0 1.86-1.484 3.367-3.312 3.367-1.826 0-3.312-1.506-3.312-3.367 0-1.859 1.486-3.367 3.312-3.367 1.828 0 3.312 1.508 3.312 3.367zM40.93 37.62c0 1.86-1.484 3.367-3.312 3.367-1.826 0-3.312-1.506-3.312-3.367 0-1.859 1.486-3.367 3.312-3.367 1.828 0 3.312 1.508 3.312 3.367z" stroke-linecap="round"/></g></svg>